<svg id="visual" viewBox="0 0 900 300" width="900" height="300" xmlns="http://www.w3.org/2000/svg" xmlns:xlink="http://www.w3.org/1999/xlink" version="1.1"><path d="M0 142L18.8 143C37.7 144 75.3 146 112.8 142.8C150.3 139.7 187.7 131.3 225.2 130.2C262.7 129 300.3 135 337.8 134C375.3 133 412.7 125 450.2 123.8C487.7 122.7 525.3 128.3 562.8 129.2C600.3 130 637.7 126 675.2 129.5C712.7 133 750.3 144 787.8 143C825.3 142 862.7 129 881.3 122.5L900 116L900 301L881.3 301C862.7 301 825.3 301 787.8 301C750.3 301 712.7 301 675.2 301C637.7 301 600.3 301 562.8 301C525.3 301 487.7 301 450.2 301C412.7 301 375.3 301 337.8 301C300.3 301 262.7 301 225.2 301C187.7 301 150.3 301 112.8 301C75.3 301 37.7 301 18.8 301L0 301Z" fill="#83cbfa"></path><path d="M0 230L18.8 226C37.7 222 75.3 214 112.8 213.8C150.3 213.7 187.7 221.3 225.2 221C262.7 220.7 300.3 212.3 337.8 214.5C375.3 216.7 412.7 229.3 450.2 234.5C487.7 239.7 525.3 237.3 562.8 234.5C600.3 231.7 637.7 228.3 675.2 222.8C712.7 217.3 750.3 209.7 787.8 212.5C825.3 215.3 862.7 228.7 881.3 235.3L900 242L900 301L881.3 301C862.7 301 825.3 301 787.8 301C750.3 301 712.7 301 675.2 301C637.7 301 600.3 301 562.8 301C525.3 301 487.7 301 450.2 301C412.7 301 375.3 301 337.8 301C300.3 301 262.7 301 225.2 301C187.7 301 150.3 301 112.8 301C75.3 301 37.7 301 18.8 301L0 301Z" fill="#69bbf2"></path></svg>