<svg id="visual" viewBox="0 0 960 150" width="960" height="150" xmlns="http://www.w3.org/2000/svg" xmlns:xlink="http://www.w3.org/1999/xlink" version="1.1"><path d="M0 120L14.5 116.2C29 112.3 58 104.7 87.2 104.7C116.3 104.7 145.7 112.3 174.8 115.3C204 118.3 233 116.7 262 115.2C291 113.7 320 112.3 349 113.3C378 114.3 407 117.7 436.2 116.7C465.3 115.7 494.7 110.3 523.8 107.5C553 104.7 582 104.3 611 104.8C640 105.3 669 106.7 698 109.5C727 112.3 756 116.7 785.2 115.8C814.3 115 843.7 109 872.8 105C902 101 931 99 945.5 98L960 97L960 0L945.5 0C931 0 902 0 872.8 0C843.7 0 814.3 0 785.2 0C756 0 727 0 698 0C669 0 640 0 611 0C582 0 553 0 523.8 0C494.7 0 465.3 0 436.2 0C407 0 378 0 349 0C320 0 291 0 262 0C233 0 204 0 174.8 0C145.7 0 116.3 0 87.2 0C58 0 29 0 14.5 0L0 0Z" fill="#eaf7ff"></path><path d="M0 97L14.5 94.7C29 92.3 58 87.7 87.2 88.2C116.3 88.7 145.7 94.3 174.8 92.8C204 91.3 233 82.7 262 82.5C291 82.3 320 90.7 349 94.2C378 97.7 407 96.3 436.2 95.2C465.3 94 494.7 93 523.8 90.3C553 87.7 582 83.3 611 84.3C640 85.3 669 91.7 698 91C727 90.3 756 82.7 785.2 81.2C814.3 79.7 843.7 84.3 872.8 87.3C902 90.3 931 91.7 945.5 92.3L960 93L960 0L945.5 0C931 0 902 0 872.8 0C843.7 0 814.3 0 785.2 0C756 0 727 0 698 0C669 0 640 0 611 0C582 0 553 0 523.8 0C494.7 0 465.3 0 436.2 0C407 0 378 0 349 0C320 0 291 0 262 0C233 0 204 0 174.8 0C145.7 0 116.3 0 87.2 0C58 0 29 0 14.5 0L0 0Z" fill="#cbe8fb"></path><path d="M0 63L14.5 61.7C29 60.3 58 57.7 87.2 56.3C116.3 55 145.7 55 174.8 55.3C204 55.7 233 56.3 262 58.2C291 60 320 63 349 64.8C378 66.7 407 67.3 436.2 67.8C465.3 68.3 494.7 68.7 523.8 67.7C553 66.7 582 64.3 611 63C640 61.7 669 61.3 698 60.8C727 60.3 756 59.7 785.2 62.7C814.3 65.7 843.7 72.3 872.8 72.3C902 72.3 931 65.7 945.5 62.3L960 59L960 0L945.5 0C931 0 902 0 872.8 0C843.7 0 814.3 0 785.2 0C756 0 727 0 698 0C669 0 640 0 611 0C582 0 553 0 523.8 0C494.7 0 465.3 0 436.2 0C407 0 378 0 349 0C320 0 291 0 262 0C233 0 204 0 174.8 0C145.7 0 116.3 0 87.2 0C58 0 29 0 14.5 0L0 0Z" fill="#acd9f8"></path><path d="M0 53L14.5 51.8C29 50.7 58 48.3 87.2 46.3C116.3 44.3 145.7 42.7 174.8 40.7C204 38.7 233 36.3 262 35.5C291 34.7 320 35.3 349 36.5C378 37.7 407 39.3 436.2 42.3C465.3 45.3 494.7 49.7 523.8 50.3C553 51 582 48 611 45.3C640 42.7 669 40.3 698 41.8C727 43.3 756 48.7 785.2 49.8C814.3 51 843.7 48 872.8 47.5C902 47 931 49 945.5 50L960 51L960 0L945.5 0C931 0 902 0 872.8 0C843.7 0 814.3 0 785.2 0C756 0 727 0 698 0C669 0 640 0 611 0C582 0 553 0 523.8 0C494.7 0 465.3 0 436.2 0C407 0 378 0 349 0C320 0 291 0 262 0C233 0 204 0 174.8 0C145.7 0 116.3 0 87.2 0C58 0 29 0 14.5 0L0 0Z" fill="#8ccaf5"></path><path d="M0 31L14.5 30C29 29 58 27 87.2 25.8C116.3 24.7 145.7 24.3 174.8 23.8C204 23.3 233 22.7 262 23.7C291 24.7 320 27.3 349 28.5C378 29.7 407 29.3 436.2 28C465.3 26.7 494.7 24.3 523.8 24.5C553 24.7 582 27.3 611 28.5C640 29.7 669 29.3 698 28.3C727 27.3 756 25.7 785.2 25.5C814.3 25.3 843.7 26.7 872.8 28C902 29.3 931 30.7 945.5 31.3L960 32L960 0L945.5 0C931 0 902 0 872.8 0C843.7 0 814.3 0 785.2 0C756 0 727 0 698 0C669 0 640 0 611 0C582 0 553 0 523.8 0C494.7 0 465.3 0 436.2 0C407 0 378 0 349 0C320 0 291 0 262 0C233 0 204 0 174.8 0C145.7 0 116.3 0 87.2 0C58 0 29 0 14.5 0L0 0Z" fill="#69bbf2"></path></svg>